<svg viewBox="-9.488 -2.916 547.7437 293.395" xmlns="http://www.w3.org/2000/svg">
  <path d="M -3.589 2.707 C -6.841 2.707 -9.488 5.424 -9.488 8.764 C -9.488 12.103 -6.841 14.82 -3.589 14.82 C -0.338 14.82 2.309 12.103 2.309 8.764 C 2.309 5.424 -0.338 2.707 -3.589 2.707 Z" fill="#FF454B" style="" transform="matrix(0.9999999999999999, 0, 0, 0.9999999999999999, -3.552713678800501e-15, 0)"/>
  <path d="M 505.287 193.051 C 504.356 193.051 503.6 193.824 503.6 194.781 L 503.6 244.962 L 454.727 244.962 C 453.796 244.962 453.041 245.736 453.041 246.692 C 453.041 247.65 453.796 248.424 454.727 248.424 L 506.972 248.424 L 506.972 194.781 C 506.972 193.824 506.217 193.051 505.287 193.051 Z M 83.205 244.962 L 34.331 244.962 L 34.331 194.781 C 34.331 193.824 33.575 193.051 32.645 193.051 C 31.715 193.051 30.96 193.824 30.96 194.781 L 30.96 248.424 L 83.205 248.424 C 84.135 248.424 84.891 247.65 84.891 246.692 C 84.891 245.736 84.135 244.962 83.205 244.962 Z M 453.041 37.316 C 453.041 38.272 453.796 39.046 454.727 39.046 L 503.6 39.046 L 503.6 89.227 C 503.6 90.184 504.356 90.957 505.287 90.957 C 506.217 90.957 506.972 90.184 506.972 89.227 L 506.972 35.584 L 454.727 35.584 C 453.796 35.584 453.041 36.358 453.041 37.316 Z M 84.891 37.316 C 84.891 38.272 84.135 39.046 83.205 39.046 L 34.331 39.046 L 34.331 89.227 C 34.331 90.184 33.575 90.957 32.645 90.957 C 31.715 90.957 30.96 90.184 30.96 89.227 L 30.96 35.584 L 83.205 35.584 C 84.135 35.584 84.891 36.358 84.891 37.316 Z" fill="white" style="" transform="matrix(0.9999999999999999, 0, 0, 0.9999999999999999, -3.552713678800501e-15, 0)"/>
  <path d="M 269.687 284.842 C 269.384 284.318 268.547 284.318 268.243 284.842 L 265.715 289.168 C 265.558 289.435 265.554 289.769 265.705 290.039 C 265.853 290.311 266.133 290.479 266.438 290.479 L 271.494 290.479 C 271.797 290.479 272.078 290.311 272.227 290.039 C 272.377 289.769 272.372 289.435 272.215 289.168 L 269.687 284.842 Z M 345.649 269.714 L 345.649 280.096 C 345.649 280.574 345.271 280.961 344.806 280.961 L 268.966 280.961 L 193.126 280.961 C 192.659 280.961 192.284 280.574 192.284 280.096 L 192.284 269.714 C 192.284 269.235 192.659 268.848 193.126 268.848 C 193.591 268.848 193.969 269.235 193.969 269.714 L 193.969 279.231 L 197.34 279.231 L 197.34 274.905 C 197.34 274.426 197.715 274.039 198.182 274.039 C 198.647 274.039 199.025 274.426 199.025 274.905 L 199.025 279.231 L 202.396 279.231 L 202.396 274.905 C 202.396 274.426 202.771 274.039 203.238 274.039 C 203.703 274.039 204.081 274.426 204.081 274.905 L 204.081 279.231 L 207.452 279.231 L 207.452 274.905 C 207.452 274.426 207.827 274.039 208.294 274.039 C 208.759 274.039 209.137 274.426 209.137 274.905 L 209.137 279.231 L 212.508 279.231 L 212.508 274.905 C 212.508 274.426 212.883 274.039 213.35 274.039 C 213.815 274.039 214.193 274.426 214.193 274.905 L 214.193 279.231 L 217.564 279.231 L 217.564 269.714 C 217.564 269.235 217.939 268.848 218.406 268.848 C 218.871 268.848 219.249 269.235 219.249 269.714 L 219.249 279.231 L 222.62 279.231 L 222.62 274.905 C 222.62 274.426 222.995 274.039 223.462 274.039 C 223.927 274.039 224.305 274.426 224.305 274.905 L 224.305 279.231 L 227.676 279.231 L 227.676 274.905 C 227.676 274.426 228.051 274.039 228.518 274.039 C 228.983 274.039 229.361 274.426 229.361 274.905 L 229.361 279.231 L 232.732 279.231 L 232.732 274.905 C 232.732 274.426 233.107 274.039 233.574 274.039 C 234.039 274.039 234.417 274.426 234.417 274.905 L 234.417 279.231 L 237.788 279.231 L 237.788 274.905 C 237.788 274.426 238.163 274.039 238.63 274.039 C 239.095 274.039 239.473 274.426 239.473 274.905 L 239.473 279.231 L 242.844 279.231 L 242.844 269.714 C 242.844 269.235 243.219 268.848 243.686 268.848 C 244.151 268.848 244.529 269.235 244.529 269.714 L 244.529 279.231 L 247.9 279.231 L 247.9 274.905 C 247.9 274.426 248.275 274.039 248.742 274.039 C 249.207 274.039 249.585 274.426 249.585 274.905 L 249.585 279.231 L 252.956 279.231 L 252.956 274.905 C 252.956 274.426 253.331 274.039 253.798 274.039 C 254.263 274.039 254.641 274.426 254.641 274.905 L 254.641 279.231 L 258.012 279.231 L 258.012 274.905 C 258.012 274.426 258.387 274.039 258.854 274.039 C 259.319 274.039 259.697 274.426 259.697 274.905 L 259.697 279.231 L 263.068 279.231 L 263.068 274.905 C 263.068 274.426 263.443 274.039 263.91 274.039 C 264.375 274.039 264.753 274.426 264.753 274.905 L 264.753 279.231 L 268.124 279.231 L 268.124 269.714 C 268.124 269.235 268.499 268.848 268.966 268.848 C 269.431 268.848 269.809 269.235 269.809 269.714 L 269.809 279.231 L 273.18 279.231 L 273.18 274.905 C 273.18 274.426 273.555 274.039 274.022 274.039 C 274.487 274.039 274.865 274.426 274.865 274.905 L 274.865 279.231 L 278.236 279.231 L 278.236 274.905 C 278.236 274.426 278.611 274.039 279.078 274.039 C 279.543 274.039 279.921 274.426 279.921 274.905 L 279.921 279.231 L 283.292 279.231 L 283.292 274.905 C 283.292 274.426 283.667 274.039 284.134 274.039 C 284.599 274.039 284.977 274.426 284.977 274.905 L 284.977 279.231 L 288.348 279.231 L 288.348 274.905 C 288.348 274.426 288.723 274.039 289.19 274.039 C 289.655 274.039 290.033 274.426 290.033 274.905 L 290.033 279.231 L 293.404 279.231 L 293.404 269.714 C 293.404 269.235 293.779 268.848 294.246 268.848 C 294.711 268.848 295.089 269.235 295.089 269.714 L 295.089 279.231 L 298.46 279.231 L 298.46 274.905 C 298.46 274.426 298.835 274.039 299.302 274.039 C 299.767 274.039 300.145 274.426 300.145 274.905 L 300.145 279.231 L 303.516 279.231 L 303.516 274.905 C 303.516 274.426 303.891 274.039 304.358 274.039 C 304.823 274.039 305.201 274.426 305.201 274.905 L 305.201 279.231 L 308.572 279.231 L 308.572 274.905 C 308.572 274.426 308.947 274.039 309.414 274.039 C 309.879 274.039 310.257 274.426 310.257 274.905 L 310.257 279.231 L 313.628 279.231 L 313.628 274.905 C 313.628 274.426 314.003 274.039 314.47 274.039 C 314.935 274.039 315.313 274.426 315.313 274.905 L 315.313 279.231 L 318.684 279.231 L 318.684 269.714 C 318.684 269.235 319.059 268.848 319.526 268.848 C 319.991 268.848 320.369 269.235 320.369 269.714 L 320.369 279.231 L 323.74 279.231 L 323.74 274.905 C 323.74 274.426 324.115 274.039 324.582 274.039 C 325.047 274.039 325.425 274.426 325.425 274.905 L 325.425 279.231 L 328.796 279.231 L 328.796 274.905 C 328.796 274.426 329.171 274.039 329.638 274.039 C 330.103 274.039 330.481 274.426 330.481 274.905 L 330.481 279.231 L 333.852 279.231 L 333.852 274.905 C 333.852 274.426 334.227 274.039 334.694 274.039 C 335.159 274.039 335.537 274.426 335.537 274.905 L 335.537 279.231 L 338.908 279.231 L 338.908 274.905 C 338.908 274.426 339.283 274.039 339.75 274.039 C 340.215 274.039 340.593 274.426 340.593 274.905 L 340.593 279.231 L 343.964 279.231 L 343.964 269.714 C 343.964 269.235 344.339 268.848 344.806 268.848 C 345.271 268.848 345.649 269.235 345.649 269.714 Z" fill="white" style="" transform="matrix(0.9999999999999999, 0, 0, 0.9999999999999999, -3.552713678800501e-15, 0)"/>
  <path d="M 394.273 279.864 L 390.06 279.864 L 390.06 270.346 C 390.06 269.868 389.684 269.482 389.217 269.482 C 388.751 269.482 388.375 269.868 388.375 270.346 L 388.375 280.729 C 388.375 281.208 388.751 281.594 389.217 281.594 L 394.273 281.594 C 394.74 281.594 395.116 281.208 395.116 280.729 C 395.116 280.25 394.74 279.864 394.273 279.864 Z M 399.329 271.212 C 398.863 271.212 398.487 271.598 398.487 272.078 L 398.487 278.999 C 398.487 279.476 398.863 279.864 399.329 279.864 C 399.796 279.864 400.172 279.476 400.172 278.999 L 400.172 272.078 C 400.172 271.598 399.796 271.212 399.329 271.212 Z M 444.833 271.212 C 444.367 271.212 443.991 271.598 443.991 272.078 L 443.991 278.999 C 443.991 279.476 444.367 279.864 444.833 279.864 C 445.3 279.864 445.676 279.476 445.676 278.999 L 445.676 272.078 C 445.676 271.598 445.3 271.212 444.833 271.212 Z M 404.385 271.212 C 403.919 271.212 403.543 271.598 403.543 272.078 L 403.543 278.999 C 403.543 279.476 403.919 279.864 404.385 279.864 C 404.852 279.864 405.228 279.476 405.228 278.999 L 405.228 272.078 C 405.228 271.598 404.852 271.212 404.385 271.212 Z M 409.441 271.212 C 408.975 271.212 408.599 271.598 408.599 272.078 L 408.599 278.999 C 408.599 279.476 408.975 279.864 409.441 279.864 C 409.908 279.864 410.284 279.476 410.284 278.999 L 410.284 272.078 C 410.284 271.598 409.908 271.212 409.441 271.212 Z M 414.497 271.212 C 414.031 271.212 413.655 271.598 413.655 272.078 L 413.655 278.999 C 413.655 279.476 414.031 279.864 414.497 279.864 C 414.964 279.864 415.34 279.476 415.34 278.999 L 415.34 272.078 C 415.34 271.598 414.964 271.212 414.497 271.212 Z M 419.553 271.212 C 419.087 271.212 418.711 271.598 418.711 272.078 L 418.711 278.999 C 418.711 279.476 419.087 279.864 419.553 279.864 C 420.02 279.864 420.396 279.476 420.396 278.999 L 420.396 272.078 C 420.396 271.598 420.02 271.212 419.553 271.212 Z M 424.609 271.212 C 424.143 271.212 423.767 271.598 423.767 272.078 L 423.767 278.999 C 423.767 279.476 424.143 279.864 424.609 279.864 C 425.076 279.864 425.452 279.476 425.452 278.999 L 425.452 272.078 C 425.452 271.598 425.076 271.212 424.609 271.212 Z M 429.665 271.212 C 429.199 271.212 428.823 271.598 428.823 272.078 L 428.823 278.999 C 428.823 279.476 429.199 279.864 429.665 279.864 C 430.132 279.864 430.508 279.476 430.508 278.999 L 430.508 272.078 C 430.508 271.598 430.132 271.212 429.665 271.212 Z M 434.721 271.212 C 434.255 271.212 433.879 271.598 433.879 272.078 L 433.879 278.999 C 433.879 279.476 434.255 279.864 434.721 279.864 C 435.188 279.864 435.564 279.476 435.564 278.999 L 435.564 272.078 C 435.564 271.598 435.188 271.212 434.721 271.212 Z M 440.62 272.078 L 440.62 278.999 C 440.62 279.476 440.244 279.864 439.777 279.864 C 439.311 279.864 438.935 279.476 438.935 278.999 L 438.935 272.078 C 438.935 271.598 439.311 271.212 439.777 271.212 C 440.244 271.212 440.62 271.598 440.62 272.078 Z" fill="white" style="" transform="matrix(0.9999999999999999, 0, 0, 0.9999999999999999, -3.552713678800501e-15, 0)"/>
  <path d="M 485.063 271.012 C 485.063 270.534 484.685 270.146 484.22 270.146 L 481.692 270.146 L 481.692 273.607 L 484.22 273.607 C 484.685 273.607 485.063 273.218 485.063 272.742 L 485.063 271.012 Z M 486.748 271.012 L 486.748 272.742 C 486.748 274.173 485.614 275.337 484.22 275.337 L 482.884 275.337 L 486.5 279.05 C 486.83 279.39 486.83 279.937 486.5 280.274 C 486.337 280.444 486.121 280.528 485.904 280.528 C 485.69 280.528 485.473 280.444 485.308 280.274 L 481.692 276.561 L 481.692 279.663 C 481.692 280.142 481.314 280.528 480.848 280.528 C 480.382 280.528 480.007 280.142 480.007 279.663 L 480.007 274.472 L 480.007 269.28 C 480.007 268.802 480.382 268.416 480.848 268.416 L 484.22 268.416 C 485.614 268.416 486.748 269.58 486.748 271.012 Z M 490.96 270.146 C 490.494 270.146 490.119 270.532 490.119 271.012 L 490.119 277.933 C 490.119 278.41 490.494 278.798 490.96 278.798 C 491.426 278.798 491.804 278.41 491.804 277.933 L 491.804 271.012 C 491.804 270.532 491.426 270.146 490.96 270.146 Z M 496.016 270.146 C 495.55 270.146 495.175 270.532 495.175 271.012 L 495.175 277.933 C 495.175 278.41 495.55 278.798 496.016 278.798 C 496.482 278.798 496.86 278.41 496.86 277.933 L 496.86 271.012 C 496.86 270.532 496.482 270.146 496.016 270.146 Z M 501.072 270.146 C 500.606 270.146 500.231 270.532 500.231 271.012 L 500.231 277.933 C 500.231 278.41 500.606 278.798 501.072 278.798 C 501.538 278.798 501.916 278.41 501.916 277.933 L 501.916 271.012 C 501.916 270.532 501.538 270.146 501.072 270.146 Z M 506.128 270.146 C 505.662 270.146 505.287 270.532 505.287 271.012 L 505.287 277.933 C 505.287 278.41 505.662 278.798 506.128 278.798 C 506.594 278.798 506.972 278.41 506.972 277.933 L 506.972 271.012 C 506.972 270.532 506.594 270.146 506.128 270.146 Z M 511.184 270.146 C 510.718 270.146 510.343 270.532 510.343 271.012 L 510.343 277.933 C 510.343 278.41 510.718 278.798 511.184 278.798 C 511.65 278.798 512.028 278.41 512.028 277.933 L 512.028 271.012 C 512.028 270.532 511.65 270.146 511.184 270.146 Z M 517.084 271.012 L 517.084 277.933 C 517.084 278.41 516.706 278.798 516.24 278.798 C 515.774 278.798 515.399 278.41 515.399 277.933 L 515.399 271.012 C 515.399 270.532 515.774 270.146 516.24 270.146 C 516.706 270.146 517.084 270.532 517.084 271.012 Z" fill="white" style="" transform="matrix(0.9999999999999999, 0, 0, 0.9999999999999999, -3.552713678800501e-15, 0)"/>
  <path d="M 50.341 277.933 C 50.341 278.409 49.963 278.798 49.499 278.798 L 47.813 278.798 C 47.348 278.798 46.971 278.409 46.971 277.933 L 46.971 271.012 C 46.971 270.534 47.348 270.146 47.813 270.146 L 49.499 270.146 C 49.963 270.146 50.341 270.534 50.341 271.012 L 50.341 277.933 Z M 49.499 268.416 L 47.813 268.416 C 46.419 268.416 45.285 269.58 45.285 271.012 L 45.285 277.933 C 45.285 279.364 46.419 280.528 47.813 280.528 L 49.499 280.528 C 50.892 280.528 52.027 279.364 52.027 277.933 L 52.027 271.012 C 52.027 269.58 50.892 268.416 49.499 268.416 Z M 41.072 277.933 C 41.072 278.409 40.694 278.798 40.229 278.798 L 38.544 278.798 C 38.079 278.798 37.701 278.409 37.701 277.933 L 37.701 271.012 C 37.701 270.534 38.079 270.146 38.544 270.146 L 40.229 270.146 C 40.694 270.146 41.072 270.534 41.072 271.012 L 41.072 277.933 Z M 40.229 268.416 L 38.544 268.416 C 37.15 268.416 36.016 269.58 36.016 271.012 L 36.016 277.933 C 36.016 279.364 37.15 280.528 38.544 280.528 L 40.229 280.528 C 41.623 280.528 42.757 279.364 42.757 277.933 L 42.757 271.012 C 42.757 269.58 41.623 268.416 40.229 268.416 Z M 33.488 269.28 L 33.488 279.663 C 33.488 280.142 33.111 280.528 32.645 280.528 C 32.178 280.528 31.803 280.142 31.803 279.663 L 31.803 271.37 L 29.87 273.353 C 29.542 273.692 29.008 273.692 28.678 273.353 C 28.35 273.016 28.35 272.469 28.678 272.129 L 32.05 268.668 C 32.291 268.421 32.654 268.349 32.967 268.482 C 33.282 268.615 33.488 268.931 33.488 269.28 Z M 6.523 269.28 L 6.523 279.663 C 6.523 280.142 6.145 280.528 5.68 280.528 C 5.214 280.528 4.837 280.142 4.837 279.663 L 4.837 269.28 C 4.837 268.802 5.214 268.416 5.68 268.416 C 6.145 268.416 6.523 268.802 6.523 269.28 Z M 10.736 271.012 L 10.736 272.742 C 10.736 273.218 11.113 273.607 11.579 273.607 L 13.264 273.607 C 14.657 273.607 15.792 274.771 15.792 276.203 L 15.792 277.933 C 15.792 279.364 14.657 280.528 13.264 280.528 L 11.579 280.528 C 10.185 280.528 9.051 279.364 9.051 277.933 C 9.051 277.454 9.426 277.067 9.893 277.067 C 10.359 277.067 10.736 277.454 10.736 277.933 C 10.736 278.409 11.113 278.798 11.579 278.798 L 13.264 278.798 C 13.729 278.798 14.107 278.409 14.107 277.933 L 14.107 276.203 C 14.107 275.725 13.729 275.337 13.264 275.337 L 11.579 275.337 C 10.185 275.337 9.051 274.173 9.051 272.742 L 9.051 271.012 C 9.051 269.58 10.185 268.416 11.579 268.416 L 13.264 268.416 C 14.657 268.416 15.792 269.58 15.792 271.012 C 15.792 271.489 15.415 271.876 14.949 271.876 C 14.482 271.876 14.107 271.489 14.107 271.012 C 14.107 270.534 13.729 270.146 13.264 270.146 L 11.579 270.146 C 11.113 270.146 10.736 270.534 10.736 271.012 Z M 23.376 277.933 C 23.376 278.409 22.998 278.798 22.533 278.798 L 20.848 278.798 C 20.383 278.798 20.005 278.409 20.005 277.933 L 20.005 271.012 C 20.005 270.534 20.383 270.146 20.848 270.146 L 22.533 270.146 C 22.998 270.146 23.376 270.534 23.376 271.012 L 23.376 277.933 Z M 22.533 268.416 L 20.848 268.416 C 19.454 268.416 18.32 269.58 18.32 271.012 L 18.32 277.933 C 18.32 279.364 19.454 280.528 20.848 280.528 L 22.533 280.528 C 23.927 280.528 25.061 279.364 25.061 277.933 L 25.061 271.012 C 25.061 269.58 23.927 268.416 22.533 268.416 Z" fill="white" style="" transform="matrix(0.9999999999999999, 0, 0, 0.9999999999999999, -3.552713678800501e-15, 0)"/>
  <path d="M 17.283 13.978 C 17.283 14.455 17.66 14.843 18.126 14.843 C 18.591 14.843 18.968 14.455 18.968 13.978 L 18.968 10.876 L 22.585 14.59 C 22.75 14.759 22.966 14.843 23.182 14.843 C 23.397 14.843 23.613 14.759 23.777 14.59 C 24.106 14.252 24.106 13.705 23.777 13.365 L 20.16 9.652 L 21.496 9.652 C 22.89 9.652 24.024 8.488 24.024 7.057 L 24.024 5.327 C 24.024 3.895 22.89 2.731 21.496 2.731 L 18.126 2.731 C 17.66 2.731 17.283 3.118 17.283 3.595 L 17.283 8.787 L 17.283 13.978 Z M 25.71 13.978 C 25.71 14.455 26.085 14.843 26.552 14.843 L 31.608 14.843 C 32.074 14.843 32.451 14.455 32.451 13.978 C 32.451 13.5 32.074 13.114 31.608 13.114 L 27.395 13.114 L 27.395 9.652 L 29.923 9.652 C 30.388 9.652 30.766 9.264 30.766 8.787 C 30.766 8.309 30.388 7.922 29.923 7.922 L 27.395 7.922 L 27.395 4.461 L 31.608 4.461 C 32.074 4.461 32.451 4.073 32.451 3.595 C 32.451 3.118 32.074 2.731 31.608 2.731 L 26.552 2.731 C 26.085 2.731 25.71 3.118 25.71 3.595 L 25.71 13.978 Z M 34.136 12.248 C 34.136 13.679 35.27 14.843 36.664 14.843 L 40.035 14.843 C 40.5 14.843 40.878 14.455 40.878 13.978 C 40.878 13.5 40.5 13.114 40.035 13.114 L 36.664 13.114 C 36.199 13.114 35.822 12.724 35.822 12.248 L 35.822 5.327 C 35.822 4.85 36.199 4.461 36.664 4.461 L 40.035 4.461 C 40.5 4.461 40.878 4.073 40.878 3.595 C 40.878 3.118 40.5 2.731 40.035 2.731 L 36.664 2.731 C 35.27 2.731 34.136 3.895 34.136 5.327 L 34.136 12.248 Z M 13.07 19.602 C 10.747 19.602 8.856 17.662 8.856 15.276 L 8.856 2.298 C 8.856 -0.088 10.747 -2.028 13.07 -2.028 L 45.091 -2.028 C 47.413 -2.028 49.304 -0.088 49.304 2.298 L 49.304 15.276 C 49.304 17.662 47.413 19.602 45.091 19.602 L 13.07 19.602 Z M 21.496 7.922 L 18.968 7.922 L 18.968 4.461 L 21.496 4.461 C 21.961 4.461 22.339 4.85 22.339 5.327 L 22.339 7.057 C 22.339 7.533 21.961 7.922 21.496 7.922 Z" fill="white" style="" transform="matrix(0.9999999999999999, 0, 0, 0.9999999999999999, -3.552713678800501e-15, 0)"/>
  <path d="M 538.009 12.909 C 538.338 13.249 538.338 13.796 538.009 14.134 C 537.843 14.303 537.629 14.387 537.412 14.387 C 537.196 14.387 536.981 14.303 536.817 14.134 L 533.199 10.42 L 533.199 13.522 C 533.199 13.999 532.823 14.387 532.356 14.387 C 531.891 14.387 531.513 13.999 531.513 13.522 L 531.513 3.139 C 531.513 2.662 531.891 2.275 532.356 2.275 C 532.823 2.275 533.199 2.662 533.199 3.139 L 533.199 6.243 L 536.817 2.527 C 537.146 2.19 537.68 2.19 538.009 2.527 C 538.338 2.867 538.338 3.413 538.009 3.752 L 533.548 8.331 L 538.009 12.909 Z M 528.144 6.601 C 528.144 7.077 527.766 7.466 527.3 7.466 L 525.616 7.466 C 525.15 7.466 524.772 7.077 524.772 6.601 L 524.772 4.871 C 524.772 4.394 525.15 4.005 525.616 4.005 L 527.3 4.005 C 527.766 4.005 528.144 4.394 528.144 4.871 L 528.144 6.601 Z M 528.144 11.792 C 528.144 12.268 527.766 12.658 527.3 12.658 L 525.616 12.658 C 525.15 12.658 524.772 12.268 524.772 11.792 L 524.772 10.062 C 524.772 9.586 525.15 9.196 525.616 9.196 L 527.3 9.196 C 527.766 9.196 528.144 9.586 528.144 10.062 L 528.144 11.792 Z M 527.3 2.275 L 525.616 2.275 C 524.221 2.275 523.088 3.439 523.088 4.871 L 523.088 6.601 C 523.088 7.269 523.342 7.871 523.745 8.331 C 523.342 8.791 523.088 9.394 523.088 10.062 L 523.088 11.792 C 523.088 13.223 524.221 14.387 525.616 14.387 L 527.3 14.387 C 528.695 14.387 529.828 13.223 529.828 11.792 L 529.828 10.062 C 529.828 9.394 529.576 8.791 529.171 8.331 C 529.576 7.871 529.828 7.269 529.828 6.601 L 529.828 4.871 C 529.828 3.439 528.695 2.275 527.3 2.275 Z M 484.113 4.005 L 486.641 4.005 C 487.107 4.005 487.484 4.394 487.484 4.871 L 487.484 11.792 C 487.484 12.268 487.107 12.658 486.641 12.658 L 484.113 12.658 L 484.113 4.005 Z M 483.272 14.387 L 486.641 14.387 C 488.036 14.387 489.169 13.223 489.169 11.792 L 489.169 4.871 C 489.169 3.439 488.036 2.275 486.641 2.275 L 483.272 2.275 C 482.806 2.275 482.428 2.662 482.428 3.139 L 482.428 13.522 C 482.428 13.999 482.806 14.387 483.272 14.387 Z M 474.001 13.522 L 474.001 3.139 C 474.001 2.662 474.379 2.275 474.844 2.275 C 475.311 2.275 475.688 2.662 475.688 3.139 L 475.688 7.466 L 479.057 7.466 L 479.057 3.139 C 479.057 2.662 479.435 2.275 479.9 2.275 C 480.367 2.275 480.744 2.662 480.744 3.139 L 480.744 13.522 C 480.744 13.999 480.367 14.387 479.9 14.387 C 479.435 14.387 479.057 13.999 479.057 13.522 L 479.057 9.196 L 475.688 9.196 L 475.688 13.522 C 475.688 13.999 475.311 14.387 474.844 14.387 C 474.379 14.387 474.001 13.999 474.001 13.522 Z M 513.466 12.909 C 513.796 13.249 513.796 13.796 513.466 14.134 C 513.302 14.303 513.087 14.387 512.871 14.387 C 512.654 14.387 512.44 14.303 512.274 14.134 L 508.658 10.42 L 508.658 13.522 C 508.658 13.999 508.28 14.387 507.815 14.387 C 507.348 14.387 506.972 13.999 506.972 13.522 L 506.972 3.139 C 506.972 2.662 507.348 2.275 507.815 2.275 C 508.28 2.275 508.658 2.662 508.658 3.139 L 508.658 6.243 L 512.274 2.527 C 512.604 2.19 513.137 2.19 513.466 2.527 C 513.796 2.867 513.796 3.413 513.466 3.752 L 509.007 8.331 L 513.466 12.909 Z M 505.287 13.522 C 505.287 13.999 504.909 14.387 504.444 14.387 C 503.977 14.387 503.602 13.999 503.602 13.522 L 503.602 9.196 L 499.388 9.196 C 498.921 9.196 498.546 8.808 498.546 8.331 L 498.546 3.139 C 498.546 2.662 498.921 2.275 499.388 2.275 C 499.853 2.275 500.231 2.662 500.231 3.139 L 500.231 7.466 L 503.602 7.466 L 503.602 3.139 C 503.602 2.662 503.977 2.275 504.444 2.275 C 504.909 2.275 505.287 2.662 505.287 3.139 L 505.287 13.522 Z M 514.556 -2.916 L 497.703 -2.916 C 495.378 -2.916 493.49 -0.977 493.49 1.41 L 493.49 15.253 C 493.49 17.638 495.378 19.579 497.703 19.579 L 514.556 19.579 C 516.879 19.579 518.77 17.638 518.77 15.253 L 518.77 1.41 C 518.77 -0.977 516.879 -2.916 514.556 -2.916 Z" fill="white" style="" transform="matrix(0.9999999999999999, 0, 0, 0.9999999999999999, -3.552713678800501e-15, 0)"/>
  <text style="white-space: pre; fill: rgb(51, 51, 51); font-family: Arial, sans-serif; font-size: 28px;" x="67.697" y="277.218" transform="matrix(0.6248980164527893, 0, 0, 0.5226789116859436, 38.662715911865234, 135.47421264648438)"> </text>
</svg>